<svg xmlns="http://www.w3.org/2000/svg" xmlns:xlink="http://www.w3.org/1999/xlink" width="254" height="236" version="1.1" viewBox="0 0 254 236"><title>404-image</title><desc>Created with Sketch.</desc><g id="Desktop" fill="none" fill-rule="evenodd" stroke="none" stroke-width="1" opacity=".5"><g id="404-page" transform="translate(-960.000000, -288.000000)"><g id="404-image" transform="translate(961.000000, 289.000000)"><polyline id="Path-3" stroke="#242424" stroke-width="3" points=".627 .99 34.336 26.466 34.68 73.164 34.336 186.773 160.961 215.992 210.719 130.375 34.336 72.719"/><g id="Group" fill="#FFF" stroke="#242424" stroke-width="3" transform="translate(46.000000, 190.000000)"><circle id="Oval" cx="22.5" cy="22.5" r="21"/><circle id="Oval" cx="23" cy="23" r="5.5"/></g><g id="Group" fill="#FFF" stroke="#242424" stroke-width="3" transform="translate(208.000000, 163.000000)"><circle id="Oval" cx="22.5" cy="22.5" r="21"/><circle id="Oval" cx="23" cy="23" r="5.5"/></g><path id="Combined-Shape" fill="#242424" d="M178,205 L182,205 L182,208 L178,208 L178,205 Z M185,205 L206,205 L206,208 L185,208 L185,205 Z" transform="translate(192.000000, 206.500000) rotate(-23.000000) translate(-192.000000, -206.500000)"/><path id="Combined-Shape" fill="#242424" d="M172.473165,218.350993 L176.473165,218.350993 L176.473165,221.350993 L172.473165,221.350993 L172.473165,218.350993 Z M179.473165,218.350993 L200.473165,218.350993 L200.473165,221.350993 L179.473165,221.350993 L179.473165,218.350993 Z" transform="translate(186.473165, 219.850993) rotate(-23.000000) translate(-186.473165, -219.850993)"/><path id="Path-4" stroke="#242424" stroke-width="3" d="M198.610065,126.237911 L222.219028,78.9333292 L163.963322,59.4411726 L147.719875,109.950161 L198.610065,126.237911 Z"/><polyline id="Path-5" stroke="#242424" stroke-width="3" points="131.558 105.489 134.746 71.942 157.438 79.01"/></g></g></g></svg>