<svg xmlns="http://www.w3.org/2000/svg" xmlns:xlink="http://www.w3.org/1999/xlink" width="106" height="16" version="1.1" viewBox="0 0 106 16"><title>Star-5</title><desc>Created with Sketch.</desc><g id="Star-5" fill="none" fill-rule="evenodd" stroke="none" stroke-width="1"><polygon id="Star" fill="#242424" points="8.412 13.267 3.213 16 4.206 10.211 0 6.111 5.812 5.267 8.412 0 11.011 5.267 16.823 6.111 12.618 10.211 13.61 16"/><polygon id="Star" fill="#242424" points="31.412 13.267 26.213 16 27.206 10.211 23 6.111 28.812 5.267 31.412 0 34.011 5.267 39.823 6.111 35.618 10.211 36.61 16"/><polygon id="Star" fill="#242424" points="53.412 13.267 48.213 16 49.206 10.211 45 6.111 50.812 5.267 53.412 0 56.011 5.267 61.823 6.111 57.618 10.211 58.61 16"/><polygon id="Star" fill="#242424" points="75.412 13.267 70.213 16 71.206 10.211 67 6.111 72.812 5.267 75.412 0 78.011 5.267 83.823 6.111 79.618 10.211 80.61 16"/><polygon id="Star" fill="#242424" points="97.412 13.267 92.213 16 93.206 10.211 89 6.111 94.812 5.267 97.412 0 100.011 5.267 105.823 6.111 101.618 10.211 102.61 16"/></g></svg>