<svg xmlns="http://www.w3.org/2000/svg" xmlns:xlink="http://www.w3.org/1999/xlink" width="24" height="24" version="1.1" viewBox="0 0 24 24"><title>Icon-Calendar</title><desc>Created with Sketch.</desc><g id="Icon-Calendar" fill="none" fill-rule="evenodd" stroke="none" stroke-width="1"><g transform="translate(3.000000, 2.000000)"><path id="Combined-Shape" fill="#8E8E8E" d="M2,9 L4,9 L4,11 L2,11 L2,9 Z M5,9 L7,9 L7,11 L5,11 L5,9 Z M8,9 L10,9 L10,11 L8,11 L8,9 Z M11,9 L13,9 L13,11 L11,11 L11,9 Z M14,9 L16,9 L16,11 L14,11 L14,9 Z M2,12 L4,12 L4,14 L2,14 L2,12 Z M5,12 L7,12 L7,14 L5,14 L5,12 Z M8,12 L10,12 L10,14 L8,14 L8,12 Z M11,12 L13,12 L13,14 L11,14 L11,12 Z M14,12 L16,12 L16,14 L14,14 L14,12 Z M11,15 L13,15 L13,17 L11,17 L11,15 Z M2,15 L4,15 L4,17 L2,17 L2,15 Z M5,15 L7,15 L7,17 L5,17 L5,15 Z M8,15 L10,15 L10,17 L8,17 L8,15 Z"/><rect id="Rectangle-6" width="18" height="18" x="0" y="2" stroke="#8E8E8E" stroke-linecap="round" stroke-linejoin="round" stroke-width="2" rx="2"/><path id="Path-2" stroke="#8E8E8E" stroke-linecap="round" stroke-linejoin="round" stroke-width="2" d="M0,7 L17.2233522,7"/><path id="Path-3" stroke="#8E8E8E" stroke-linecap="round" stroke-linejoin="round" stroke-width="2" d="M5.05517578,0.0166015625 L5.05517578,2"/><path id="Path-3-Copy" stroke="#8E8E8E" stroke-linecap="round" stroke-linejoin="round" stroke-width="2" d="M13,0 L13,1.91914536"/></g></g></svg>